<svg xmlns="http://www.w3.org/2000/svg" width="58" height="58" viewBox="0 0 58 58" fill="none">
  <line x1="29" y1="29" x2="29" y2="6"  stroke="#7c3aed" stroke-width="1.5" opacity="0.5"/>
  <line x1="29" y1="29" x2="48" y2="14" stroke="#7c3aed" stroke-width="1.5" opacity="0.5"/>
  <line x1="29" y1="29" x2="52" y2="35" stroke="#7c3aed" stroke-width="1.5" opacity="0.5"/>
  <line x1="29" y1="29" x2="40" y2="52" stroke="#7c3aed" stroke-width="1.5" opacity="0.4"/>
  <line x1="29" y1="29" x2="18" y2="52" stroke="#7c3aed" stroke-width="1.5" opacity="0.4"/>
  <line x1="29" y1="29" x2="6"  y2="35" stroke="#7c3aed" stroke-width="1.5" opacity="0.5"/>
  <line x1="29" y1="29" x2="10" y2="14" stroke="#7c3aed" stroke-width="1.5" opacity="0.5"/>
  <circle cx="29" cy="6"  r="3"   fill="#5b21b6" opacity="0.8"/>
  <circle cx="48" cy="14" r="2.5" fill="#5b21b6" opacity="0.7"/>
  <circle cx="52" cy="35" r="3"   fill="#7c3aed" opacity="0.8"/>
  <circle cx="40" cy="52" r="2.5" fill="#5b21b6" opacity="0.6"/>
  <circle cx="18" cy="52" r="2.5" fill="#5b21b6" opacity="0.6"/>
  <circle cx="6"  cy="35" r="3"   fill="#5b21b6" opacity="0.7"/>
  <circle cx="10" cy="14" r="2.5" fill="#5b21b6" opacity="0.7"/>
  <circle cx="29" cy="29" r="10" fill="#7c3aed" opacity="0.08"/>
  <circle cx="29" cy="29" r="6"  fill="#4c1d95" opacity="0.8"/>
  <circle cx="29" cy="29" r="3.5" fill="#a855f7"/>
</svg>
